<svg id="visual" viewBox="0 0 900 600" width="900" height="600" xmlns="http://www.w3.org/2000/svg" xmlns:xlink="http://www.w3.org/1999/xlink" version="1.1"><rect x="0" y="0" width="900" height="600" fill="#060686"></rect><defs><linearGradient id="grad1_0" x1="33.3%" y1="100%" x2="100%" y2="0%"><stop offset="20%" stop-color="#060686" stop-opacity="1"></stop><stop offset="80%" stop-color="#060686" stop-opacity="1"></stop></linearGradient></defs><defs><linearGradient id="grad2_0" x1="0%" y1="100%" x2="66.7%" y2="0%"><stop offset="20%" stop-color="#060686" stop-opacity="1"></stop><stop offset="80%" stop-color="#060686" stop-opacity="1"></stop></linearGradient></defs><g transform="translate(900, 600)"><path d="M-486.7 0C-470.7 -29.1 -454.7 -58.1 -451.2 -89.7C-447.6 -121.4 -456.7 -155.6 -449.7 -186.3C-442.7 -217 -419.8 -244.1 -392.5 -262.2C-365.1 -280.3 -333.2 -289.3 -313.2 -313.2C-293.3 -337.2 -285.2 -376 -260.6 -390C-235.9 -404 -194.8 -393.2 -163.4 -394.5C-132 -395.8 -110.5 -409.2 -84.9 -426.6C-59.3 -444 -29.6 -465.4 0 -486.7L0 0Z" fill="#01012C"></path></g><g transform="translate(0, 0)"><path d="M486.7 0C482.5 31.6 478.2 63.1 467.8 93.1C457.5 123 441 151.3 419.4 173.7C397.9 196.2 371.3 212.7 359.2 240C347.1 267.3 349.6 305.5 338 338C326.4 370.5 300.9 397.3 267.2 399.9C233.6 402.6 191.8 381.1 163.4 394.5C135 407.9 120 456.2 95 477.4C70 498.6 35 492.7 0 486.7L0 0Z" fill="#01012C"></path></g></svg>