<svg id="visual" viewBox="0 0 900 600" width="900" height="600" xmlns="http://www.w3.org/2000/svg" xmlns:xlink="http://www.w3.org/1999/xlink" version="1.1"><rect x="0" y="0" width="900" height="600" fill="#060686"></rect><defs><linearGradient id="grad1_0" x1="33.3%" y1="0%" x2="100%" y2="100%"><stop offset="20%" stop-color="#060686" stop-opacity="1"></stop><stop offset="80%" stop-color="#060686" stop-opacity="1"></stop></linearGradient></defs><defs><linearGradient id="grad2_0" x1="0%" y1="0%" x2="66.7%" y2="100%"><stop offset="20%" stop-color="#060686" stop-opacity="1"></stop><stop offset="80%" stop-color="#060686" stop-opacity="1"></stop></linearGradient></defs><g transform="translate(900, 0)"><path d="M0 486.7C-29.1 470.7 -58.1 454.7 -89.7 451.2C-121.4 447.6 -155.6 456.7 -186.3 449.7C-217 442.7 -244.1 419.8 -262.2 392.5C-280.3 365.1 -289.3 333.2 -313.2 313.2C-337.2 293.3 -376 285.2 -390 260.6C-404 235.9 -393.2 194.8 -394.5 163.4C-395.8 132 -409.2 110.5 -426.6 84.9C-444 59.3 -465.4 29.6 -486.7 0L0 0Z" fill="#01012C"></path></g><g transform="translate(0, 600)"><path d="M0 -486.7C31.6 -482.5 63.1 -478.2 93.1 -467.8C123 -457.5 151.3 -441 173.7 -419.4C196.2 -397.9 212.7 -371.3 240 -359.2C267.3 -347.1 305.5 -349.6 338 -338C370.5 -326.4 397.3 -300.9 399.9 -267.2C402.6 -233.6 381.1 -191.8 394.5 -163.4C407.9 -135 456.2 -120 477.4 -95C498.6 -70 492.7 -35 486.7 0L0 0Z" fill="#01012C"></path></g></svg>