<svg id="visual" viewBox="0 0 1920 1080" width="1920" height="1080" xmlns="http://www.w3.org/2000/svg" xmlns:xlink="http://www.w3.org/1999/xlink" version="1.1"><rect x="0" y="0" width="1920" height="1080" fill="#3e444b"></rect><path d="M1264 1080L1065 1080L1065 1033L1096 1033L1096 986L1063 986L1063 939L1081 939L1081 892L1123 892L1123 845L1055 845L1055 798L1095 798L1095 751L1160 751L1160 704L1238 704L1238 657L1220 657L1220 610L1115 610L1115 563L1032 563L1032 517L1277 517L1277 470L1280 470L1280 423L1007 423L1007 376L1084 376L1084 329L1208 329L1208 282L1075 282L1075 235L1069 235L1069 188L1125 188L1125 141L1111 141L1111 94L1189 94L1189 47L1241 47L1241 0L1920 0L1920 47L1920 47L1920 94L1920 94L1920 141L1920 141L1920 188L1920 188L1920 235L1920 235L1920 282L1920 282L1920 329L1920 329L1920 376L1920 376L1920 423L1920 423L1920 470L1920 470L1920 517L1920 517L1920 563L1920 563L1920 610L1920 610L1920 657L1920 657L1920 704L1920 704L1920 751L1920 751L1920 798L1920 798L1920 845L1920 845L1920 892L1920 892L1920 939L1920 939L1920 986L1920 986L1920 1033L1920 1033L1920 1080L1920 1080Z" fill="#007cff"></path><path d="M1174 1080L1191 1080L1191 1033L1271 1033L1271 986L1289 986L1289 939L1309 939L1309 892L1208 892L1208 845L1224 845L1224 798L1393 798L1393 751L1300 751L1300 704L1171 704L1171 657L1261 657L1261 610L1264 610L1264 563L1151 563L1151 517L1300 517L1300 470L1228 470L1228 423L1290 423L1290 376L1317 376L1317 329L1280 329L1280 282L1313 282L1313 235L1375 235L1375 188L1168 188L1168 141L1242 141L1242 94L1362 94L1362 47L1391 47L1391 0L1920 0L1920 47L1920 47L1920 94L1920 94L1920 141L1920 141L1920 188L1920 188L1920 235L1920 235L1920 282L1920 282L1920 329L1920 329L1920 376L1920 376L1920 423L1920 423L1920 470L1920 470L1920 517L1920 517L1920 563L1920 563L1920 610L1920 610L1920 657L1920 657L1920 704L1920 704L1920 751L1920 751L1920 798L1920 798L1920 845L1920 845L1920 892L1920 892L1920 939L1920 939L1920 986L1920 986L1920 1033L1920 1033L1920 1080L1920 1080Z" fill="#0070e0"></path><path d="M1344 1080L1438 1080L1438 1033L1308 1033L1308 986L1408 986L1408 939L1498 939L1498 892L1314 892L1314 845L1481 845L1481 798L1296 798L1296 751L1478 751L1478 704L1494 704L1494 657L1425 657L1425 610L1301 610L1301 563L1329 563L1329 517L1418 517L1418 470L1321 470L1321 423L1316 423L1316 376L1331 376L1331 329L1361 329L1361 282L1351 282L1351 235L1457 235L1457 188L1310 188L1310 141L1450 141L1450 94L1287 94L1287 47L1499 47L1499 0L1920 0L1920 47L1920 47L1920 94L1920 94L1920 141L1920 141L1920 188L1920 188L1920 235L1920 235L1920 282L1920 282L1920 329L1920 329L1920 376L1920 376L1920 423L1920 423L1920 470L1920 470L1920 517L1920 517L1920 563L1920 563L1920 610L1920 610L1920 657L1920 657L1920 704L1920 704L1920 751L1920 751L1920 798L1920 798L1920 845L1920 845L1920 892L1920 892L1920 939L1920 939L1920 986L1920 986L1920 1033L1920 1033L1920 1080L1920 1080Z" fill="#0063c1"></path><path d="M1477 1080L1603 1080L1603 1033L1496 1033L1496 986L1514 986L1514 939L1424 939L1424 892L1559 892L1559 845L1482 845L1482 798L1439 798L1439 751L1556 751L1556 704L1462 704L1462 657L1598 657L1598 610L1493 610L1493 563L1467 563L1467 517L1511 517L1511 470L1450 470L1450 423L1452 423L1452 376L1516 376L1516 329L1435 329L1435 282L1483 282L1483 235L1510 235L1510 188L1469 188L1469 141L1412 141L1412 94L1603 94L1603 47L1434 47L1434 0L1920 0L1920 47L1920 47L1920 94L1920 94L1920 141L1920 141L1920 188L1920 188L1920 235L1920 235L1920 282L1920 282L1920 329L1920 329L1920 376L1920 376L1920 423L1920 423L1920 470L1920 470L1920 517L1920 517L1920 563L1920 563L1920 610L1920 610L1920 657L1920 657L1920 704L1920 704L1920 751L1920 751L1920 798L1920 798L1920 845L1920 845L1920 892L1920 892L1920 939L1920 939L1920 986L1920 986L1920 1033L1920 1033L1920 1080L1920 1080Z" fill="#0057a3"></path><path d="M1581 1080L1600 1080L1600 1033L1629 1033L1629 986L1551 986L1551 939L1568 939L1568 892L1666 892L1666 845L1701 845L1701 798L1713 798L1713 751L1672 751L1672 704L1700 704L1700 657L1650 657L1650 610L1699 610L1699 563L1563 563L1563 517L1690 517L1690 470L1608 470L1608 423L1671 423L1671 376L1713 376L1713 329L1604 329L1604 282L1617 282L1617 235L1595 235L1595 188L1577 188L1577 141L1557 141L1557 94L1686 94L1686 47L1558 47L1558 0L1920 0L1920 47L1920 47L1920 94L1920 94L1920 141L1920 141L1920 188L1920 188L1920 235L1920 235L1920 282L1920 282L1920 329L1920 329L1920 376L1920 376L1920 423L1920 423L1920 470L1920 470L1920 517L1920 517L1920 563L1920 563L1920 610L1920 610L1920 657L1920 657L1920 704L1920 704L1920 751L1920 751L1920 798L1920 798L1920 845L1920 845L1920 892L1920 892L1920 939L1920 939L1920 986L1920 986L1920 1033L1920 1033L1920 1080L1920 1080Z" fill="#004a85"></path><path d="M1716 1080L1792 1080L1792 1033L1704 1033L1704 986L1759 986L1759 939L1745 939L1745 892L1719 892L1719 845L1811 845L1811 798L1820 798L1820 751L1761 751L1761 704L1734 704L1734 657L1777 657L1777 610L1751 610L1751 563L1713 563L1713 517L1797 517L1797 470L1705 470L1705 423L1719 423L1719 376L1695 376L1695 329L1702 329L1702 282L1759 282L1759 235L1693 235L1693 188L1706 188L1706 141L1817 141L1817 94L1804 94L1804 47L1800 47L1800 0L1920 0L1920 47L1920 47L1920 94L1920 94L1920 141L1920 141L1920 188L1920 188L1920 235L1920 235L1920 282L1920 282L1920 329L1920 329L1920 376L1920 376L1920 423L1920 423L1920 470L1920 470L1920 517L1920 517L1920 563L1920 563L1920 610L1920 610L1920 657L1920 657L1920 704L1920 704L1920 751L1920 751L1920 798L1920 798L1920 845L1920 845L1920 892L1920 892L1920 939L1920 939L1920 986L1920 986L1920 1033L1920 1033L1920 1080L1920 1080Z" fill="#033d68"></path></svg>