<svg id="visual" viewBox="0 0 1920 1080" width="1920" height="1080" xmlns="http://www.w3.org/2000/svg" xmlns:xlink="http://www.w3.org/1999/xlink" version="1.1"><rect x="0" y="0" width="1920" height="1080" fill="#3e444b"></rect><path d="M658 0L857 0L857 47L826 47L826 94L859 94L859 141L841 141L841 188L799 188L799 235L867 235L867 282L827 282L827 329L762 329L762 376L684 376L684 423L702 423L702 470L807 470L807 517L890 517L890 563L645 563L645 610L642 610L642 657L915 657L915 704L838 704L838 751L714 751L714 798L847 798L847 845L853 845L853 892L797 892L797 939L811 939L811 986L733 986L733 1033L681 1033L681 1080L0 1080L0 1033L0 1033L0 986L0 986L0 939L0 939L0 892L0 892L0 845L0 845L0 798L0 798L0 751L0 751L0 704L0 704L0 657L0 657L0 610L0 610L0 563L0 563L0 517L0 517L0 470L0 470L0 423L0 423L0 376L0 376L0 329L0 329L0 282L0 282L0 235L0 235L0 188L0 188L0 141L0 141L0 94L0 94L0 47L0 47L0 0L0 0Z" fill="#007cff"></path><path d="M748 0L731 0L731 47L651 47L651 94L633 94L633 141L613 141L613 188L714 188L714 235L698 235L698 282L529 282L529 329L622 329L622 376L751 376L751 423L661 423L661 470L658 470L658 517L771 517L771 563L622 563L622 610L694 610L694 657L632 657L632 704L605 704L605 751L642 751L642 798L609 798L609 845L547 845L547 892L754 892L754 939L680 939L680 986L560 986L560 1033L531 1033L531 1080L0 1080L0 1033L0 1033L0 986L0 986L0 939L0 939L0 892L0 892L0 845L0 845L0 798L0 798L0 751L0 751L0 704L0 704L0 657L0 657L0 610L0 610L0 563L0 563L0 517L0 517L0 470L0 470L0 423L0 423L0 376L0 376L0 329L0 329L0 282L0 282L0 235L0 235L0 188L0 188L0 141L0 141L0 94L0 94L0 47L0 47L0 0L0 0Z" fill="#0070e0"></path><path d="M578 0L484 0L484 47L614 47L614 94L514 94L514 141L424 141L424 188L608 188L608 235L441 235L441 282L626 282L626 329L444 329L444 376L428 376L428 423L497 423L497 470L621 470L621 517L593 517L593 563L504 563L504 610L601 610L601 657L606 657L606 704L591 704L591 751L561 751L561 798L571 798L571 845L465 845L465 892L612 892L612 939L472 939L472 986L635 986L635 1033L423 1033L423 1080L0 1080L0 1033L0 1033L0 986L0 986L0 939L0 939L0 892L0 892L0 845L0 845L0 798L0 798L0 751L0 751L0 704L0 704L0 657L0 657L0 610L0 610L0 563L0 563L0 517L0 517L0 470L0 470L0 423L0 423L0 376L0 376L0 329L0 329L0 282L0 282L0 235L0 235L0 188L0 188L0 141L0 141L0 94L0 94L0 47L0 47L0 0L0 0Z" fill="#0063c1"></path><path d="M445 0L319 0L319 47L426 47L426 94L408 94L408 141L498 141L498 188L363 188L363 235L440 235L440 282L483 282L483 329L366 329L366 376L460 376L460 423L324 423L324 470L429 470L429 517L455 517L455 563L411 563L411 610L472 610L472 657L470 657L470 704L406 704L406 751L487 751L487 798L439 798L439 845L412 845L412 892L453 892L453 939L510 939L510 986L319 986L319 1033L488 1033L488 1080L0 1080L0 1033L0 1033L0 986L0 986L0 939L0 939L0 892L0 892L0 845L0 845L0 798L0 798L0 751L0 751L0 704L0 704L0 657L0 657L0 610L0 610L0 563L0 563L0 517L0 517L0 470L0 470L0 423L0 423L0 376L0 376L0 329L0 329L0 282L0 282L0 235L0 235L0 188L0 188L0 141L0 141L0 94L0 94L0 47L0 47L0 0L0 0Z" fill="#0057a3"></path><path d="M341 0L322 0L322 47L293 47L293 94L371 94L371 141L354 141L354 188L256 188L256 235L221 235L221 282L209 282L209 329L250 329L250 376L222 376L222 423L272 423L272 470L223 470L223 517L359 517L359 563L232 563L232 610L314 610L314 657L251 657L251 704L209 704L209 751L318 751L318 798L305 798L305 845L327 845L327 892L345 892L345 939L365 939L365 986L236 986L236 1033L364 1033L364 1080L0 1080L0 1033L0 1033L0 986L0 986L0 939L0 939L0 892L0 892L0 845L0 845L0 798L0 798L0 751L0 751L0 704L0 704L0 657L0 657L0 610L0 610L0 563L0 563L0 517L0 517L0 470L0 470L0 423L0 423L0 376L0 376L0 329L0 329L0 282L0 282L0 235L0 235L0 188L0 188L0 141L0 141L0 94L0 94L0 47L0 47L0 0L0 0Z" fill="#004a85"></path><path d="M206 0L130 0L130 47L218 47L218 94L163 94L163 141L177 141L177 188L203 188L203 235L111 235L111 282L102 282L102 329L161 329L161 376L188 376L188 423L145 423L145 470L171 470L171 517L209 517L209 563L125 563L125 610L217 610L217 657L203 657L203 704L227 704L227 751L220 751L220 798L163 798L163 845L229 845L229 892L216 892L216 939L105 939L105 986L118 986L118 1033L122 1033L122 1080L0 1080L0 1033L0 1033L0 986L0 986L0 939L0 939L0 892L0 892L0 845L0 845L0 798L0 798L0 751L0 751L0 704L0 704L0 657L0 657L0 610L0 610L0 563L0 563L0 517L0 517L0 470L0 470L0 423L0 423L0 376L0 376L0 329L0 329L0 282L0 282L0 235L0 235L0 188L0 188L0 141L0 141L0 94L0 94L0 47L0 47L0 0L0 0Z" fill="#033d68"></path></svg>